<mxfile host="app.diagrams.net" agent="Mozilla/5.0 (Windows NT 10.0; Win64; x64) AppleWebKit/537.36 (KHTML, like Gecko) Chrome/130.0.0.0 Safari/537.36" version="25.0.1">
  <diagram name="Trang-1" id="AKmigAKGQKDIFyxA_NjR">
    <mxGraphModel dx="1006" dy="531" grid="1" gridSize="10" guides="1" tooltips="1" connect="1" arrows="1" fold="1" page="1" pageScale="1" pageWidth="1654" pageHeight="2336" math="0" shadow="0">
      <root>
        <mxCell id="0" />
        <mxCell id="1" parent="0" />
        <mxCell id="ZZ4PbgYDjyUQYsm2rczF-15" style="edgeStyle=orthogonalEdgeStyle;rounded=0;orthogonalLoop=1;jettySize=auto;html=1;exitX=0.5;exitY=1;exitDx=0;exitDy=0;entryX=0.5;entryY=0;entryDx=0;entryDy=0;" edge="1" parent="1" source="ZZ4PbgYDjyUQYsm2rczF-2" target="ZZ4PbgYDjyUQYsm2rczF-14">
          <mxGeometry relative="1" as="geometry" />
        </mxCell>
        <mxCell id="ZZ4PbgYDjyUQYsm2rczF-2" value="&lt;span&gt;Bắt đầu và khởi tạo&lt;/span&gt;" style="ellipse;whiteSpace=wrap;html=1;fontStyle=1" vertex="1" parent="1">
          <mxGeometry x="460" y="160" width="120" height="80" as="geometry" />
        </mxCell>
        <mxCell id="ZZ4PbgYDjyUQYsm2rczF-12" value="Lưu đồ giải thuật cho các Node" style="swimlane;whiteSpace=wrap;html=1;" vertex="1" parent="1">
          <mxGeometry x="280" y="120" width="480" height="640" as="geometry" />
        </mxCell>
        <mxCell id="ZZ4PbgYDjyUQYsm2rczF-4" value="Đọc các giá trị cảm biến" style="rounded=1;whiteSpace=wrap;html=1;fontStyle=1" vertex="1" parent="ZZ4PbgYDjyUQYsm2rczF-12">
          <mxGeometry x="160" y="280" width="160" height="80" as="geometry" />
        </mxCell>
        <mxCell id="ZZ4PbgYDjyUQYsm2rczF-18" style="edgeStyle=orthogonalEdgeStyle;rounded=0;orthogonalLoop=1;jettySize=auto;html=1;exitX=0.5;exitY=1;exitDx=0;exitDy=0;entryX=0.5;entryY=0;entryDx=0;entryDy=0;" edge="1" parent="ZZ4PbgYDjyUQYsm2rczF-12" source="ZZ4PbgYDjyUQYsm2rczF-9" target="ZZ4PbgYDjyUQYsm2rczF-7">
          <mxGeometry relative="1" as="geometry" />
        </mxCell>
        <mxCell id="ZZ4PbgYDjyUQYsm2rczF-9" value="Truyền về Gateway" style="rounded=1;whiteSpace=wrap;html=1;fontStyle=1" vertex="1" parent="ZZ4PbgYDjyUQYsm2rczF-12">
          <mxGeometry x="160" y="400" width="160" height="80" as="geometry" />
        </mxCell>
        <mxCell id="ZZ4PbgYDjyUQYsm2rczF-3" style="edgeStyle=orthogonalEdgeStyle;rounded=0;orthogonalLoop=1;jettySize=auto;html=1;exitX=0.5;exitY=1;exitDx=0;exitDy=0;entryX=0.5;entryY=0;entryDx=0;entryDy=0;" edge="1" parent="ZZ4PbgYDjyUQYsm2rczF-12" source="ZZ4PbgYDjyUQYsm2rczF-4" target="ZZ4PbgYDjyUQYsm2rczF-9">
          <mxGeometry relative="1" as="geometry" />
        </mxCell>
        <mxCell id="ZZ4PbgYDjyUQYsm2rczF-19" style="edgeStyle=orthogonalEdgeStyle;rounded=0;orthogonalLoop=1;jettySize=auto;html=1;exitX=0.5;exitY=1;exitDx=0;exitDy=0;" edge="1" parent="ZZ4PbgYDjyUQYsm2rczF-12" source="ZZ4PbgYDjyUQYsm2rczF-7">
          <mxGeometry relative="1" as="geometry">
            <mxPoint x="239.52941176470586" y="260" as="targetPoint" />
            <Array as="points">
              <mxPoint x="240" y="620" />
              <mxPoint x="80" y="620" />
              <mxPoint x="80" y="260" />
            </Array>
          </mxGeometry>
        </mxCell>
        <mxCell id="ZZ4PbgYDjyUQYsm2rczF-20" style="edgeStyle=orthogonalEdgeStyle;rounded=0;orthogonalLoop=1;jettySize=auto;html=1;exitX=1;exitY=0.5;exitDx=0;exitDy=0;" edge="1" parent="ZZ4PbgYDjyUQYsm2rczF-12" source="ZZ4PbgYDjyUQYsm2rczF-7">
          <mxGeometry relative="1" as="geometry">
            <mxPoint x="239.99999999999977" y="500" as="targetPoint" />
            <Array as="points">
              <mxPoint x="390" y="560" />
              <mxPoint x="390" y="500" />
            </Array>
          </mxGeometry>
        </mxCell>
        <mxCell id="ZZ4PbgYDjyUQYsm2rczF-7" value="Sau 30 phút ?" style="rhombus;whiteSpace=wrap;html=1;fontStyle=1" vertex="1" parent="ZZ4PbgYDjyUQYsm2rczF-12">
          <mxGeometry x="155" y="520" width="170" height="80" as="geometry" />
        </mxCell>
        <mxCell id="ZZ4PbgYDjyUQYsm2rczF-10" value="&lt;b&gt;Đúng&lt;/b&gt;" style="text;html=1;align=center;verticalAlign=middle;whiteSpace=wrap;rounded=0;" vertex="1" parent="ZZ4PbgYDjyUQYsm2rczF-12">
          <mxGeometry x="120" y="590" width="60" height="30" as="geometry" />
        </mxCell>
        <mxCell id="ZZ4PbgYDjyUQYsm2rczF-11" value="&lt;b&gt;Sai&lt;/b&gt;" style="text;html=1;align=center;verticalAlign=middle;whiteSpace=wrap;rounded=0;" vertex="1" parent="ZZ4PbgYDjyUQYsm2rczF-12">
          <mxGeometry x="325" y="560" width="60" height="30" as="geometry" />
        </mxCell>
        <mxCell id="ZZ4PbgYDjyUQYsm2rczF-17" style="edgeStyle=orthogonalEdgeStyle;rounded=0;orthogonalLoop=1;jettySize=auto;html=1;exitX=0.5;exitY=1;exitDx=0;exitDy=0;entryX=0.5;entryY=0;entryDx=0;entryDy=0;" edge="1" parent="1" source="ZZ4PbgYDjyUQYsm2rczF-14" target="ZZ4PbgYDjyUQYsm2rczF-4">
          <mxGeometry relative="1" as="geometry" />
        </mxCell>
        <mxCell id="ZZ4PbgYDjyUQYsm2rczF-14" value="Gửi dữ liệu GPS" style="rounded=1;whiteSpace=wrap;html=1;fontStyle=1" vertex="1" parent="1">
          <mxGeometry x="440" y="280" width="160" height="80" as="geometry" />
        </mxCell>
      </root>
    </mxGraphModel>
  </diagram>
</mxfile>
